<?xml version="1.0" encoding="UTF-8"?>
<svg data-bbox="0.746 0.384 633.305 284.052" xmlns="http://www.w3.org/2000/svg" viewBox="0 0 635 285" height="285" width="635" data-type="ugc">
    <g>
        <path fill="#544541" d="M213.315 216.852c1.969 0 3.937-.04 5.866-.161a66.45 66.45 0 0 0 6.108-.803l-7.153 23.706.402-.562c.322-.482.723-1.065 1.206-1.768a10.517 10.517 0 0 1 1.768-1.929c.743-.582 1.607-1.085 2.571-1.527 1.005-.422 2.19-.643 3.536-.643 2.25 0 4.018.804 5.304 2.411 1.326 1.607 2.009 3.938 2.009 6.992 0 2.531-.542 5.143-1.607 7.875a28.57 28.57 0 0 1-4.42 7.554c-1.828 2.25-3.938 4.139-6.349 5.625-2.411 1.447-4.942 2.17-7.554 2.17a7.563 7.563 0 0 1-2.812-.562 6.884 6.884 0 0 1-2.331-1.447c-.643-.683-1.185-1.547-1.607-2.571-.382-1.065-.563-2.291-.563-3.697 0-.804.081-1.708.242-2.732.16-1.005.421-2.13.803-3.376l9.161-29.412c.041-.261.101-.562.161-.884a3.68 3.68 0 0 0 .161-1.125c0-1.125-.523-1.808-1.527-2.089-.964-.322-2.15-.482-3.536-.482l.161-.563Zm-1.206 44.199c0 .964.201 1.828.643 2.571.482.704 1.326 1.045 2.572 1.045 1.286 0 2.511-.422 3.696-1.286 1.166-.904 2.291-2.089 3.376-3.536 1.064-1.446 2.049-3.073 2.973-4.902a44.234 44.234 0 0 0 2.33-5.545c.684-1.928 1.206-3.777 1.527-5.545.362-1.767.563-3.335.563-4.741 0-.522-.06-1.065-.161-1.607a3.63 3.63 0 0 0-.482-1.447c-.221-.482-.563-.843-1.045-1.125-.482-.261-1.105-.401-1.848-.401-.924 0-1.808.281-2.652.803-.864.482-1.667 1.125-2.411 1.929a15.007 15.007 0 0 0-1.929 2.652 26.326 26.326 0 0 0-1.526 2.812c-.543 1.186-1.125 2.612-1.768 4.26a109.86 109.86 0 0 0-1.849 5.143 129.74 129.74 0 0 0-1.446 5.062c-.382 1.608-.563 2.893-.563 3.858Z"/>
        <path fill="#544541" d="M281.414 255.506a63.95 63.95 0 0 1-1.527 3.294 18.297 18.297 0 0 1-1.929 3.295c-.703 1.025-1.506 1.889-2.41 2.572a5.161 5.161 0 0 1-3.135 1.044c-1.728 0-2.933-.542-3.616-1.607-.643-1.065-.964-2.25-.964-3.536 0-.422.02-.843.08-1.285.04-.422.12-.844.241-1.286a49.924 49.924 0 0 1-1.607 2.411 16.531 16.531 0 0 1-2.17 2.491 11.255 11.255 0 0 1-2.813 1.928 8.006 8.006 0 0 1-3.536.804 8.266 8.266 0 0 1-3.214-.643c-.965-.361-1.849-.924-2.652-1.687-.804-.804-1.447-1.768-1.929-2.893-.442-1.166-.643-2.532-.643-4.099 0-1.286.161-2.692.482-4.259.362-1.547.924-3.214 1.688-4.982.743-1.768 1.728-3.496 2.973-5.224a24.947 24.947 0 0 1 4.259-4.581c1.608-1.386 3.316-2.511 5.144-3.375 1.868-.843 3.797-1.285 5.786-1.285 1.326 0 2.411.321 3.215.964a5.722 5.722 0 0 1 1.768 2.411l.723-2.331h5.063l-5.545 16.635a127.738 127.738 0 0 0-1.768 6.188c-.442 1.888-.643 3.415-.643 4.58 0 .442.04.965.161 1.608.16.643.582.964 1.285.964.583 0 1.206-.281 1.849-.884a14.281 14.281 0 0 0 1.928-2.25 22.672 22.672 0 0 0 1.608-2.732c.522-.965.924-1.808 1.205-2.572l.643.322Zm-7.715-17.76c0-1.226-.321-2.21-.964-2.974-.643-.743-1.587-1.125-2.813-1.125-1.025 0-2.13.462-3.295 1.366-1.125.864-2.25 2.009-3.375 3.456-1.125 1.446-2.23 3.094-3.295 4.902a58.916 58.916 0 0 0-2.733 5.545 40.738 40.738 0 0 0-1.928 5.304c-.482 1.728-.724 3.214-.724 4.5 0 .603.081 1.246.242 1.929.16.643.361 1.245.642 1.768a4.19 4.19 0 0 0 1.286 1.366c.583.321 1.306.482 2.17.482.964 0 1.889-.281 2.813-.884a11.045 11.045 0 0 0 2.572-2.17c.803-.844 1.486-1.788 2.089-2.812a21.024 21.024 0 0 0 1.527-2.813c.964-2.19 1.868-4.5 2.732-6.911a193.327 193.327 0 0 0 2.572-7.876 8.697 8.697 0 0 0 .321-1.607 7.71 7.71 0 0 0 .161-1.446Z"/>
        <path fill="#544541" d="M302.677 216.932h3.295a43.65 43.65 0 0 0 3.214-.241c.965-.1 1.889-.201 2.813-.321a34.803 34.803 0 0 0 2.733-.402l-6.51 24.992c.583-.803 1.366-1.687 2.331-2.652a24.887 24.887 0 0 1 3.134-2.652 21.48 21.48 0 0 1 3.616-2.009c1.286-.522 2.492-.803 3.617-.803 1.165 0 2.109.381 2.812 1.125.744.763 1.125 1.727 1.125 2.893 0 1.085-.321 2.169-.964 3.295-.603 1.125-1.426 2.23-2.491 3.294a31.89 31.89 0 0 1-3.697 2.974 26.534 26.534 0 0 1-4.42 2.33c1.647.161 2.973.784 3.938 1.849.964 1.024 1.446 2.531 1.446 4.5 0 .602-.06 1.265-.16 2.009-.061.703-.081 1.748-.081 3.134 0 .703.081 1.446.241 2.25.161.763.583 1.125 1.286 1.125.422 0 .844-.201 1.286-.643.422-.422.844-.964 1.286-1.607.422-.683.824-1.406 1.205-2.17.422-.743.764-1.466 1.045-2.17l.563.242c-.322.763-.704 1.647-1.125 2.651a22.474 22.474 0 0 1-1.527 2.813 10.616 10.616 0 0 1-2.09 2.25c-.763.583-1.667.884-2.732.884-1.507 0-2.632-.542-3.376-1.607-.763-1.125-1.125-2.411-1.125-3.857 0-1.065.101-2.09.322-3.054a16.45 16.45 0 0 0 .321-3.215c0-.964-.16-1.868-.482-2.732-.321-.844-1.025-1.446-2.089-1.768l-6.349 2.732-3.295 12.617h-5.465l11.09-42.19c.101-.321.181-.662.241-1.044.041-.422.081-.824.081-1.206 0-.743-.161-1.305-.482-1.687-.282-.362-.683-.663-1.206-.884a5.77 5.77 0 0 0-1.687-.402c-.603-.04-1.186-.08-1.768-.08l.08-.563Zm2.732 34.154a80.728 80.728 0 0 0 4.26-1.768 24.382 24.382 0 0 0 4.018-2.25c.683-.422 1.406-.965 2.17-1.608a18.577 18.577 0 0 0 2.009-2.169 23.071 23.071 0 0 0 1.527-2.411c.422-.804.643-1.628.643-2.491 0-.683-.221-1.367-.643-2.009-.382-.684-1.045-1.045-2.009-1.045-.603 0-1.206.161-1.849.482a9.595 9.595 0 0 0-1.929 1.125 13.12 13.12 0 0 0-1.848 1.527 13.94 13.94 0 0 0-1.527 1.607 17.1 17.1 0 0 0-1.125 1.447 13.588 13.588 0 0 0-1.045 1.928c-.381.804-.783 1.829-1.205 3.054a82.966 82.966 0 0 0-1.447 4.581Z"/>
        <path fill="#544541" d="M341.162 250.523c.482-1.607 1.245-3.415 2.33-5.464a34.713 34.713 0 0 1 4.018-5.786c1.547-1.808 3.255-3.335 5.143-4.581 1.869-1.225 3.878-1.848 6.027-1.848.744 0 1.467.08 2.17.241a4.777 4.777 0 0 1 1.848.884 3.868 3.868 0 0 1 1.367 1.527c.361.602.562 1.346.562 2.25 0 .964-.221 1.928-.643 2.893a15.13 15.13 0 0 1-1.687 2.812 15.887 15.887 0 0 1-2.25 2.411 12.897 12.897 0 0 1-2.492 1.849 31.144 31.144 0 0 1-4.982 2.652c-1.728.703-3.757 1.446-6.108 2.25a26.402 26.402 0 0 0-.723 3.053 16.877 16.877 0 0 0-.321 3.376c0 1.346.281 2.531.884 3.535.582.965 1.627 1.447 3.134 1.447 1.004 0 2.049-.241 3.134-.723a15.107 15.107 0 0 0 2.973-1.929 15.886 15.886 0 0 0 2.572-2.491 29.88 29.88 0 0 0 2.009-2.491l.562.321c-.482.804-1.165 1.748-2.009 2.813a17.899 17.899 0 0 1-2.893 2.893 17.379 17.379 0 0 1-3.536 2.33 9.036 9.036 0 0 1-4.098.965c-2.15 0-4.018-.744-5.625-2.251-1.567-1.547-2.331-3.877-2.331-6.991 0-.844.04-1.768.161-2.732.161-1.005.422-2.09.804-3.215Zm5.705.724a89.834 89.834 0 0 0 4.661-2.01c1.487-.683 2.913-1.607 4.259-2.732 1.226-1.004 2.271-2.33 3.134-3.938.905-1.607 1.367-3.234 1.367-4.902 0-.421-.061-.843-.161-1.285a2.882 2.882 0 0 0-.402-1.125 2 2 0 0 0-.804-.884c-.321-.201-.763-.322-1.285-.322-.764 0-1.527.322-2.331.965-.763.642-1.507 1.506-2.25 2.571a29.096 29.096 0 0 0-2.009 3.456c-.603 1.285-1.185 2.571-1.768 3.857a96.04 96.04 0 0 0-1.446 3.616 34.26 34.26 0 0 0-.965 2.733Z"/>
        <path fill="#544541" d="M399.667 234.612c-.482 0-1.125.281-1.929.803-.763.482-1.486 1.206-2.169 2.17a23.497 23.497 0 0 0-1.206 1.929 55.021 55.021 0 0 0-1.125 2.169c-.321.704-.643 1.427-.964 2.17a29.868 29.868 0 0 0-.643 1.768 287.94 287.94 0 0 0-2.813 8.358 588.748 588.748 0 0 0-2.652 8.839l-.643 2.17h-5.625l4.259-12.777c.261-.744.522-1.648.804-2.733a72.7 72.7 0 0 0 .723-3.294c.261-1.125.482-2.251.643-3.376.16-1.125.241-2.169.241-3.134 0-.422-.04-.884-.081-1.366 0-.522-.08-1.044-.241-1.527-.12-.482-.281-.884-.482-1.205-.221-.322-.522-.482-.884-.482-.603 0-1.205.241-1.848.723-.603.482-1.186 1.125-1.768 1.929-.603.803-1.186 1.727-1.768 2.732a51.346 51.346 0 0 0-1.527 2.973l-.563-.321a651.95 651.95 0 0 0 1.688-3.456c.643-1.225 1.326-2.35 2.089-3.375.804-1.065 1.648-1.949 2.572-2.652.904-.683 1.848-1.044 2.813-1.044.964 0 1.728.221 2.33.642a4.273 4.273 0 0 1 1.527 1.527c.362.603.603 1.286.724 2.09.16.803.241 1.607.241 2.411 0 .803-.081 1.647-.241 2.491-.121.803-.221 1.607-.322 2.411.322-.744.723-1.628 1.206-2.652a34.156 34.156 0 0 1 1.687-3.054 30.473 30.473 0 0 1 2.009-2.813c.683-.844 1.407-1.486 2.17-1.928a6.725 6.725 0 0 1 1.607-.724 4.496 4.496 0 0 1 1.608-.321c.904 0 1.728.362 2.491 1.045.804.703 1.206 1.567 1.206 2.571 0 .643-.242 1.206-.724 1.688-.442.442-.964.643-1.607.643-.924 0-1.587-.402-2.009-1.206-.322-.743-.482-1.386-.482-1.928 0-.583-.121-.884-.322-.884Z"/>
        <path fill="#544541" d="M412.869 245.059c0-1.447.02-2.893.08-4.34.101-1.487.282-2.833.563-4.018.321-1.226.824-2.21 1.527-2.973.683-.744 1.647-1.125 2.893-1.125 1.225 0 2.27.462 3.134 1.366.844.864 1.607 1.928 2.25 3.214a28.479 28.479 0 0 1 1.688 4.259 45.62 45.62 0 0 1 1.125 4.179 91.33 91.33 0 0 1 1.607 8.518c.362 2.733.603 5.586.724 8.519.964-1.648 1.868-3.456 2.732-5.385a50.671 50.671 0 0 0 2.25-6.187c.482-1.608.804-3.074.965-4.42.16-1.386.241-2.753.241-4.099 0-.582-.061-1.165-.161-1.768a7.557 7.557 0 0 0-.322-1.607c-.12-.321-.462-.562-1.044-.723-.543-.201-1.045-.743-1.527-1.607a3.85 3.85 0 0 1-.563-2.009c0-.643.201-1.166.643-1.608a2.082 2.082 0 0 1 1.527-.642c.964 0 1.648.522 2.09 1.526.482.965.763 2.09.884 3.376.04.321.08.683.08 1.044v.965c0 4.5-.683 8.799-2.009 12.857a80.214 80.214 0 0 1-5.143 11.974c-1.025 1.929-2.311 4.038-3.858 6.349a53.928 53.928 0 0 1-4.983 6.589c-1.768 2.03-3.676 3.717-5.705 5.063-2.05 1.386-4.099 2.09-6.188 2.09a3.761 3.761 0 0 1-2.09-.643c-.683-.382-1.045-.944-1.045-1.688 0-.803.241-1.426.724-1.848.482-.382 1.165-.563 2.009-.563 1.125 0 1.969.201 2.571.643.643.482 1.065.723 1.286.723.744 0 1.768-.301 3.054-.884 1.326-.602 2.572-1.506 3.697-2.732 1.868-2.049 3.174-3.998 3.938-5.866.743-1.828 1.125-3.858 1.125-6.108 0-1.928-.141-3.978-.402-6.187-.221-2.19-.522-4.42-.884-6.67a75.66 75.66 0 0 0-1.447-6.67 256.83 256.83 0 0 0-1.768-6.188 14.688 14.688 0 0 0-1.125-2.331c-.442-.743-1.024-1.125-1.768-1.125-.703 0-1.245.402-1.607 1.206-.382.763-.643 1.647-.804 2.652-.16 1.024-.281 2.009-.321 2.973v1.929h-.643Z"/>
        <path fill="#544541" d="M37.488 125.844c6.37.764 11.492 2.933 15.35 6.509 3.857 3.597 5.786 8.077 5.786 13.421 0 4.078-1.125 7.775-3.375 11.09-2.25 3.335-5.365 5.946-9.323 7.875-3.917 1.929-8.317 2.893-13.18 2.893-2.25 0-4.881-.141-7.875-.402-1.025-.06-2.33-.1-3.938-.16a81.028 81.028 0 0 0-5.223-.161l-8.439.161c-1.507.06-3.576.08-6.188.08-.22 0-.321-.241-.321-.723s.1-.724.321-.724c2.512 0 4.38-.2 5.626-.642 1.286-.422 2.17-1.166 2.652-2.251.522-1.125.803-2.852.803-5.223v-54.405c0-2.25-.28-3.937-.803-5.063-.482-1.165-1.346-1.968-2.572-2.41-1.185-.422-3.034-.643-5.545-.643-.16 0-.241-.201-.241-.643 0-.482.08-.723.24-.723l6.109.08c3.415.16 6.208.241 8.358.241 2.19 0 4.5-.1 6.91-.321.845-.1 1.89-.181 3.135-.241 1.226-.1 2.612-.161 4.179-.161 6.951 0 12.296 1.346 15.992 4.018 3.697 2.692 5.546 6.429 5.546 11.251 0 3.817-1.246 7.212-3.697 10.205-2.411 3.014-5.847 5.365-10.287 7.072Zm-9.563-30.216c-2.532 0-4.24.543-5.143 1.608-.864 1.024-1.286 3.093-1.286 6.187v22.341l4.902.08c4.6 0 8.077-1.486 10.447-4.5 2.351-2.993 3.536-6.871 3.536-11.652 0-4.501-1.085-7.956-3.214-10.367-2.09-2.451-5.184-3.697-9.242-3.697Zm2.973 69.272c10.548 0 15.832-5.425 15.832-16.314 0-5.946-1.567-10.708-4.661-14.304-3.054-3.636-7.594-5.464-13.582-5.464-2.792 0-5.123.08-6.991.241v28.528c0 1.828.2 3.255.643 4.259.482 1.025 1.386 1.808 2.732 2.331 1.326.482 3.335.723 6.027.723Z"/>
        <path fill="#544541" d="M136.837 148.829c0-.161.161-.241.482-.241.261 0 .482.06.643.161.201.12.321.221.321.321-.803 5.947-1.205 11.391-1.205 16.314 0 .642-.121 1.104-.322 1.366-.221.281-.703.401-1.446.401H84.278c-.22 0-.321-.241-.321-.723s.1-.723.322-.723c2.672 0 4.62-.181 5.866-.563 1.226-.361 2.05-1.125 2.491-2.25.422-1.165.643-2.933.643-5.304v-54.404c0-2.351-.22-4.058-.643-5.143-.442-1.125-1.285-1.889-2.571-2.33-1.246-.423-3.175-.644-5.787-.644-.22 0-.321-.2-.321-.643 0-.482.1-.723.322-.723h48.941c.804 0 1.206.362 1.206 1.045l.241 15.269c0 .16-.221.301-.643.401-.442.061-.703-.04-.804-.321-1.888-8.88-7.313-13.34-16.314-13.34h-4.741c-2.793 0-4.782.522-5.947 1.527-1.185 1.024-1.768 2.732-1.768 5.143v24.028h11.251c8.619 0 12.939-2.913 12.939-8.759 0-.201.201-.322.643-.322.421 0 .642.121.642.322l-.08 10.286.08 5.464c.161 2.532.242 4.561.242 6.108 0 .161-.242.241-.724.241s-.723-.08-.723-.241c0-6.69-4.38-10.045-13.099-10.045H104.45v26.68c0 2.571.482 4.379 1.447 5.384.964 1.024 2.692 1.527 5.223 1.527h5.786c10.488 0 17.138-5.083 19.931-15.269Z"/>
        <path fill="#544541" d="M231.428 93.701c.101 0 .161.241.161.723 0 .442-.06.643-.161.643-2.632 0-5.605 1.367-8.92 4.099-3.275 2.692-6.188 6.147-8.76 10.366l-13.421 21.778v26.278c0 2.472.201 4.26.643 5.385.422 1.085 1.246 1.808 2.491 2.169 1.226.382 3.155.563 5.787.563.261 0 .401.241.401.723s-.14.723-.401.723c-2.572 0-4.561-.02-5.947-.08l-8.599-.161-8.439.161c-1.607.06-3.696.08-6.268.08-.161 0-.241-.241-.241-.723s.08-.723.241-.723c2.672 0 4.601-.181 5.786-.563 1.226-.361 2.09-1.125 2.572-2.25.482-1.165.723-2.933.723-5.304V133.4l-17.921-27.243c-2.632-4.179-4.902-7.072-6.831-8.679-1.929-1.607-3.817-2.41-5.626-2.41-.221 0-.321-.202-.321-.644 0-.482.1-.723.321-.723l3.938.08c1.708.161 2.934.242 3.697.242 2.672 0 6.449-.08 11.331-.242l7.314-.08c.16 0 .241.241.241.723 0 .442-.081.643-.241.643-3.215 0-4.822 1.105-4.822 3.295 0 1.125.442 2.391 1.366 3.777l17.037 26.198 12.055-19.608c1.929-3.215 2.893-6.027 2.893-8.438 0-3.476-2.15-5.224-6.429-5.224-.161 0-.241-.2-.241-.643 0-.482.08-.723.241-.723l6.107.08c3.255.161 6.269.242 9.001.242 1.326 0 2.934-.08 4.822-.242l4.42-.08Z"/>
        <path fill="#544541" d="M331.197 165.705c.201 0 .321.241.321.723s-.12.723-.321.723c-2.692 0-4.862-.02-6.509-.08l-8.599-.161-9.966.161c-1.406.06-3.274.08-5.625.08-.281 0-.402-.241-.402-.723s.121-.723.402-.723c2.933 0 5.083-.181 6.429-.563 1.326-.361 2.25-1.084 2.732-2.169.483-1.125.724-2.913.724-5.385v-27.081H270.04v27.081c0 2.371.201 4.139.643 5.304.482 1.125 1.406 1.889 2.812 2.25 1.387.382 3.557.563 6.51.563.161 0 .241.241.241.723s-.08.723-.241.723c-2.692 0-4.742-.02-6.188-.08l-9.805-.161-8.598.161c-1.447.06-3.516.08-6.189.08-.16 0-.241-.241-.241-.723s.081-.723.241-.723c2.773 0 4.842-.181 6.189-.563 1.326-.361 2.25-1.125 2.732-2.25.482-1.165.723-2.933.723-5.304v-54.404c0-2.351-.241-4.058-.723-5.143-.482-1.125-1.406-1.889-2.732-2.33-1.347-.423-3.376-.644-6.108-.644-.161 0-.241-.2-.241-.643 0-.482.08-.723.241-.723l6.268.08c3.576.161 6.389.242 8.438.242 2.733 0 5.988-.08 9.805-.242l6.188-.08c.161 0 .241.241.241.723 0 .442-.08.643-.241.643-2.893 0-5.043.241-6.429.724-1.346.482-2.291 1.285-2.813 2.41-.482 1.126-.723 2.873-.723 5.224v24.028h40.343v-24.028c0-2.351-.241-4.099-.724-5.224-.482-1.125-1.426-1.928-2.812-2.41-1.346-.483-3.456-.724-6.349-.724-.281 0-.402-.2-.402-.643 0-.482.121-.723.402-.723l5.625.08c3.737.161 7.072.242 9.966.242 2.129 0 5.002-.08 8.599-.242l6.509-.08c.201 0 .321.241.321.723 0 .442-.12.643-.321.643-2.853 0-4.902.221-6.188.643-1.286.442-2.17 1.206-2.652 2.33-.482 1.086-.723 2.793-.723 5.144v54.404c0 2.371.241 4.139.723 5.304.482 1.125 1.366 1.889 2.652 2.25 1.286.382 3.335.563 6.188.563Z"/>
        <path fill="#544541" d="M433.302 165.704c.422 0 .643.241.643.723s-.221.724-.643.724c-1.506 0-3.897-.081-7.152-.242-3.275-.16-5.666-.241-7.152-.241-1.989 0-4.32.081-6.992.241-2.632.161-4.701.242-6.188.242-.322 0-.482-.242-.482-.724s.16-.723.482-.723c2.25 0 3.898-.241 4.982-.723 1.065-.523 1.608-1.386 1.608-2.572 0-1.125-.683-3.094-2.009-5.947l-8.921-18.081h-28.449l-5.706 12.697c-1.024 2.311-1.527 4.42-1.527 6.349 0 2.732.985 4.801 2.974 6.188 1.969 1.406 4.701 2.089 8.197 2.089.422 0 .643.241.643.723s-.221.724-.643.724c-1.406 0-3.436-.081-6.108-.242-2.953-.16-5.525-.241-7.715-.241-2.149 0-4.621.081-7.393.241-2.532.161-4.621.242-6.269.242-.361 0-.562-.242-.562-.724s.201-.723.562-.723c2.19 0 4.039-.422 5.546-1.286 1.486-.844 2.933-2.37 4.339-4.58 1.387-2.25 3.074-5.565 5.063-9.965l25.235-56.896c.16-.261.522-.402 1.125-.402.522 0 .823.14.884.402l28.851 58.101c2.732 5.626 5.002 9.483 6.831 11.572 1.868 2.05 3.857 3.054 5.946 3.054Zm-58.987-30.296h25.717l-13.502-27.403-12.215 27.403Z"/>
        <path fill="#544541" d="M532.276 93.701c.16 0 .241.241.241.723 0 .442-.081.643-.241.643-3.175 0-5.606 1.125-7.313 3.376-1.728 2.25-2.572 5.444-2.572 9.562v60.754c0 .261-.221.422-.643.482-.382.1-.623.08-.723-.08l-55.211-64.049v47.816c0 4.178.824 7.373 2.492 9.563 1.647 2.149 4.038 3.214 7.152 3.214.161 0 .241.241.241.723s-.08.723-.241.723c-2.089 0-3.697-.02-4.822-.08l-6.188-.161-6.911.161c-1.286.06-3.114.08-5.465.08-.221 0-.321-.241-.321-.723s.1-.723.321-.723c3.375 0 5.967-1.065 7.795-3.214 1.869-2.19 2.813-5.385 2.813-9.563v-51.512c-2.21-2.35-4.179-3.978-5.947-4.902-1.768-.965-3.596-1.447-5.465-1.447-.16 0-.241-.2-.241-.643 0-.482.081-.723.241-.723l4.662.08c1.064.121 2.531.161 4.42.161l7.473-.16c.965-.04 2.11-.08 3.456-.08.583 0 1.045.16 1.366.481.322.282.804.884 1.447 1.849l2.813 3.777 42.352 49.824v-41.628c0-4.118-.844-7.312-2.492-9.563-1.667-2.25-4.018-3.375-7.072-3.375-.16 0-.241-.2-.241-.643 0-.482.081-.723.241-.723l4.822.08c2.512.161 4.601.242 6.269.242 1.547 0 3.656-.08 6.348-.242l5.144-.08Z"/>
        <path fill="#544541" d="M552.561 95.63c-.06-.844 1.085-1.708 3.455-2.572 2.351-.844 4.42-1.286 6.188-1.286 1.286 0 1.869.282 1.768.804l-6.911 31.421c-.161.121-.522.221-1.045.322-.482.06-.723-.02-.723-.241l-2.732-28.448Z"/>
        <path fill="#544541" d="M599.976 106.156c0 2.893.723 5.464 2.17 7.715a23.403 23.403 0 0 0 5.384 5.786c2.19 1.667 5.104 3.616 8.76 5.866 4.018 2.531 7.173 4.701 9.483 6.509 2.29 1.768 4.259 3.978 5.867 6.59 1.607 2.632 2.411 5.706 2.411 9.241 0 4.018-1.045 7.615-3.135 10.769-2.049 3.114-4.962 5.545-8.759 7.313-3.818 1.768-8.157 2.652-13.019 2.652-3.275 0-6.671-.462-10.207-1.366-3.495-.844-6.107-1.889-7.875-3.135-.703-.482-1.105-1.225-1.206-2.25l-.723-17.84v-.161c0-.321.181-.482.563-.482.421-.04.663.081.723.402 2.612 6.489 5.585 11.813 8.92 15.992 3.315 4.139 7.575 6.188 12.778 6.188 3.375 0 6.188-.904 8.438-2.733 2.251-1.808 3.376-4.902 3.376-9.241 0-3.415-.784-6.429-2.331-9.001-1.507-2.611-3.375-4.781-5.625-6.509-2.21-1.708-5.224-3.817-9.082-6.348-3.757-2.411-6.71-4.44-8.84-6.108-2.089-1.708-3.897-3.797-5.384-6.268-1.507-2.451-2.25-5.344-2.25-8.679 0-4.058 1.125-7.494 3.375-10.286 2.29-2.833 5.264-4.922 8.921-6.269 3.636-1.386 7.473-2.089 11.492-2.089 2.672 0 5.324.281 7.956.804 2.672.482 4.922 1.105 6.75 1.848 1.166.482 1.768 1.246 1.768 2.25l.322 15.992c0 .221-.221.382-.643.482-.442.06-.683-.02-.723-.241-1.608-4.761-3.737-9.081-6.349-12.938-2.632-3.898-6.57-5.867-11.814-5.867-3.536 0-6.349 1.025-8.438 3.054-2.049 2.05-3.054 4.822-3.054 8.358Z"/>
        <path fill="#544541" d="M122.132.48c15.188-1.079 18.6 7.197 18.407 11.47-7.399 2.874-4.4 7.147-1.975 8.924-1.58 5.755.109 17.78 1.151 23.073.275 11.157-3.773 34.335-22.158 37.789-18.384 3.453-35.86-4.7-42.3-9.209-17.036-.345-32.23-2.734-37.697-3.885 6.217-3.927 17.302-11.627 11.905-11.01-6.747.771-45.104-8.192-47.803-13.685-2.159-4.395 0-7.743 1.348-8.867 26.407 18.504 42.117 16.095 47.803 16.577 4.549.385 4.401-.803 3.758-1.446-21.588-1.735-48.668-13.974-50.21-17.54-1.234-2.853 1.928-6.907 3.663-8.578C14.77 32.285 38.96 42.886 47.249 45.49c6.63 2.081 6.68-.161 5.876-1.542-14.006-5.333-41.98-17.059-41.825-21.3.154-4.24 4.562-6.264 6.747-6.746 21.357 18.813 36.011 23.709 40.67 23.805C111.337 30.55 103.145 1.83 122.131.481Z"/>
        <path stroke-linecap="round" stroke-width=".947" stroke="#544541" fill="#ffffff" d="M44.184 67.184c13.837-11.865 45.73-34.703 62.602-31.133 21.089 4.464 15.163 41.913-62.602 31.133Z"/>
        <path stroke-linecap="round" stroke-width="1.894" stroke="#544541" d="M107.909 36.22c-2.29 2.968-5.166 9.16 1.654 10.178-.678 2.84-.761 8.625 4.327 9.032" fill="none"/>
        <path stroke-linecap="round" stroke-width="1.894" stroke="#544541" d="M99.691 36.341c-2.06 3.962-5.79 11.437 1.096 12.346-3.18 4.326 0 11.96 8.778 10.687" fill="none"/>
        <path stroke-linecap="round" stroke-width="1.894" stroke="#544541" d="M88.318 39.018c-2.06 3.962-1.67 12.321 5.216 13.23-3.179 4.326-3.183 13.868 5.595 12.596" fill="none"/>
        <path stroke-linecap="round" stroke-width="1.894" stroke="#544541" d="M81.2 42.453c-2.06 3.962-4.47 12.323 2.416 13.232-3.179 4.326-1.654 12.976 7.124 11.703" fill="none"/>
        <path stroke-linecap="round" stroke-width="1.894" stroke="#544541" d="M71.749 46.3c-2.06 3.962-3.17 13.31 3.717 14.22-1.834 2.576-5.702 7.047-1.302 8.269" fill="none"/>
        <path stroke-linecap="round" stroke-width="1.894" stroke="#544541" d="M60.837 54.92c-.72 1.358-.888 4.48 4.2 6.108-2.587 2.035-5.879 6.462 1.653 7.887" fill="none"/>
        <path stroke-linecap="round" stroke-width="1.894" stroke="#544541" d="M54.485 59.501c-.51 1.145-.64 3.486 2.923 3.69-2.288.72-6.076 2.697-2.923 4.834" fill="none"/>
        <path stroke-linecap="round" stroke-width="2.368" stroke="#544541" d="M115.035 83.13c1.615 1.212 4.041 15.75 7.27 18.173" fill="none"/>
        <path fill="#544541" d="M147.442 19.161c-.729-.795-3.923-5.028-5.967-6.216-3.421 1.171-3.358 2.58-3.421 3.697-.876 2.52 2.364 2.73 2.84 3.348l6.548-.829Z"/>
        <path stroke-linecap="round" stroke-width="2.368" stroke="#544541" d="M91.205 81.918c1.212 8.077 5.088 24.07 10.904 23.424" fill="none"/>
        <path fill="#ffffff" d="M133.234 13.76c0 .827-.875 1.498-1.953 1.498-1.079 0-1.953-.67-1.953-1.499 0-.828.874-.832 1.953-.832 1.078 0 1.953.004 1.953.832Z"/>
    </g>
</svg>
